<svg fill="none" height="100%" width="100%" viewBox="0 0 500 500" xmlns:xlink="http://www.w3.org/1999/xlink" xmlns="http://www.w3.org/2000/svg"><defs><linearGradient id="i0" gradientUnits="userSpaceOnUse" spreadMethod="pad" x2="-16.053" y2="-141.268" x1="-1" y1="86"><stop offset="0%" stop-color="#ffc639" /><stop offset="50%" stop-color="#ffdf8f" /><stop offset="100%" stop-color="#fff8e6" /></linearGradient><linearGradient id="i1" gradientUnits="userSpaceOnUse" spreadMethod="pad" x2="-163.38" y2="-36.62" x1="1.408" y1="50.704"><stop offset="0%" stop-color="#ffc639" /><stop offset="50%" stop-color="#ffe29c" /><stop offset="100%" stop-color="#ffffff" /></linearGradient><linearGradient id="i2" gradientUnits="userSpaceOnUse" spreadMethod="pad" x2="-16.053" y2="-141.268" x1="-1" y1="86"><stop offset="0%" stop-color="#ffc639" /><stop offset="50%" stop-color="#ffd56f" /><stop offset="100%" stop-color="#ffe5a6" /></linearGradient><linearGradient id="i3" gradientUnits="userSpaceOnUse" spreadMethod="pad" x2="-163.38" y2="-36.62" x1="1.408" y1="50.704"><stop offset="0%" stop-color="#ffc639" /><stop offset="50%" stop-color="#ffe29c" /><stop offset="100%" stop-color="#ffffff" /></linearGradient><filter id="i4"><feColorMatrix values="0 0 0 0 1 0 0 0 0 1 0 0 0 0 1 0 0 0 1 0" type="matrix" /></filter><mask height="20000" width="20000" y="-10000" x="-10000" maskContentUnits="userSpaceOnUse" maskUnits="userSpaceOnUse" style="mask-type: alpha" mask-type="alpha" id="i5"><g filter="url(#i4)"><g transform="translate(246.217,391.627)"><animateTransform repeatCount="indefinite" type="translate" attributeName="transform" dur="2.033s" begin="0s" calcMode="spline" values="246.217 391.627; 246.217 411.627; 246.217 391.627; 246.217 391.627" keyTimes="0; 0.491803; 0.983607; 1" keySplines="0.333 0 0.667 1; 0.333 0 0.667 1; 0 0 1 1" fill="freeze" /><g transform="scale(1,1) translate(-246.217,-391.627)"><g transform="matrix(1,0,0,1,0,0)" id="i6"><g id="i7" transform="matrix(1,0,0,1,249.715,226.711)"><path fill="url(#i1)" d="M0.751,-92.145C-39.355,-92.559,-72.203,-60.382,-72.617,-20.276C-72.809,-1.695,-65.872,16.252,-53.232,29.873C-40.6,43.147,-33.472,60.717,-33.286,79.04C-33.286,79.04,-32.9,85.169,-32.9,85.169C-12.007,94.153,11.598,94.476,32.729,86.069C32.729,86.069,33.292,79.04,33.292,79.04C33.267,60.982,40.187,43.606,52.62,30.51C80.26,1.453,79.111,-44.508,50.054,-72.148C36.744,-84.809,19.13,-91.955,0.761,-92.145C0.761,-92.145,0.751,-92.145,0.751,-92.145Z" /></g></g></g></g></g></mask><filter id="i8"><feColorMatrix values="0 0 0 0 1 0 0 0 0 1 0 0 0 0 1 0 0 0 1 0" type="matrix" /></filter><mask height="20000" width="20000" y="-10000" x="-10000" maskContentUnits="userSpaceOnUse" maskUnits="userSpaceOnUse" style="mask-type: alpha" mask-type="alpha" id="i9"><g filter="url(#i8)"><g transform="translate(246.217,391.627)"><animateTransform repeatCount="indefinite" type="translate" attributeName="transform" dur="2.033s" begin="0s" calcMode="spline" values="246.217 391.627; 246.217 411.627; 246.217 391.627; 246.217 391.627" keyTimes="0; 0.491803; 0.983607; 1" keySplines="0.333 0 0.667 1; 0.333 0 0.667 1; 0 0 1 1" fill="freeze" /><g transform="scale(1,1) translate(-246.217,-391.627)"><g transform="matrix(1,0,0,1,0,0)" id="i10"><g id="i7" transform="matrix(1,0,0,1,249.715,226.711)"><path fill="url(#i3)" d="M0.751,-92.145C-39.355,-92.559,-72.203,-60.382,-72.617,-20.276C-72.809,-1.695,-65.872,16.252,-53.232,29.873C-40.6,43.147,-33.472,60.717,-33.286,79.04C-33.286,79.04,-32.9,85.169,-32.9,85.169C-12.007,94.153,11.598,94.476,32.729,86.069C32.729,86.069,33.292,79.04,33.292,79.04C33.267,60.982,40.187,43.606,52.62,30.51C80.26,1.453,79.111,-44.508,50.054,-72.148C36.744,-84.809,19.13,-91.955,0.761,-92.145C0.761,-92.145,0.751,-92.145,0.751,-92.145Z" /></g></g></g></g></g></mask></defs><g id="i11"><g transform="translate(216.303,87.551)"><g transform="scale(0.8,0.8)"><animateTransform repeatCount="indefinite" type="scale" attributeName="transform" dur="2.033s" begin="0s" calcMode="spline" values="0.8 0.8; 1.2 1.2; 0.8 0.8; 0.8 0.8" keyTimes="0; 0.491803; 0.983607; 1" keySplines="0.333 0 0.667 1; 0.333 0 0.667 1; 0 0 1 1" fill="freeze" /><g transform="translate(-216.303,-87.551)"><g id="i11" transform="matrix(1,0,0,1,216.303,87.551)"><ellipse ry="11.55" rx="11.55" cy="0" cx="0" fill="#ffe888" /></g></g></g></g></g><g id="i12"><g transform="translate(333.258,99.1)"><g transform="scale(0.8,0.8)"><animateTransform repeatCount="indefinite" type="scale" attributeName="transform" dur="2.033s" begin="0s" calcMode="spline" values="0.8 0.8; 1.2 1.2; 0.8 0.8; 0.8 0.8" keyTimes="0; 0.491803; 0.983607; 1" keySplines="0.333 0 0.667 1; 0.333 0 0.667 1; 0 0 1 1" fill="freeze" /><g transform="translate(-333.258,-99.1)"><g id="i12" transform="matrix(1,0,0,1,333.258,99.1)"><ellipse ry="11.55" rx="11.55" cy="0" cx="0" fill="#ffe888" /></g></g></g></g></g><g id="i13"><g transform="translate(356.36,301.237)"><g transform="scale(0.8,0.8)"><animateTransform repeatCount="indefinite" type="scale" attributeName="transform" dur="2.033s" begin="0s" calcMode="spline" values="0.8 0.8; 1.2 1.2; 0.8 0.8; 0.8 0.8" keyTimes="0; 0.491803; 0.983607; 1" keySplines="0.333 0 0.667 1; 0.333 0 0.667 1; 0 0 1 1" fill="freeze" /><g transform="translate(-356.36,-301.237)"><g id="i13" transform="matrix(1,0,0,1,356.36,301.237)"><ellipse ry="11.55" rx="11.55" cy="0" cx="0" fill="#ffe888" /></g></g></g></g></g><g id="i14"><g transform="translate(131.774,297.75)"><g transform="scale(0.8,0.8)"><animateTransform repeatCount="indefinite" type="scale" attributeName="transform" dur="2.033s" begin="0s" calcMode="spline" values="0.8 0.8; 1.2 1.2; 0.8 0.8; 0.8 0.8" keyTimes="0; 0.491803; 0.983607; 1" keySplines="0.333 0 0.667 1; 0.333 0 0.667 1; 0 0 1 1" fill="freeze" /><g transform="translate(-131.774,-297.75)"><g id="i14" transform="matrix(1,0,0,1,131.774,297.75)"><ellipse ry="11.55" rx="11.55" cy="0" cx="0" fill="#ffe888" /></g></g></g></g></g><g id="i7"><g transform="translate(386.687,206.243)"><g transform="scale(1,1)"><animateTransform repeatCount="indefinite" type="scale" attributeName="transform" dur="2.033s" begin="0s" calcMode="spline" values="1 1; 0.8 0.8; 1 1; 1 1" keyTimes="0; 0.491803; 0.983607; 1" keySplines="0.333 0 0.667 1; 0.333 0 0.667 1; 0 0 1 1" fill="freeze" /><g transform="translate(-386.687,-206.243)"><g id="i7" transform="matrix(1,0,0,1,386.687,206.243)"><ellipse ry="18.775" rx="18.775" cy="0" cx="0" fill="#ffe888" /></g></g></g></g></g><g id="i15"><g transform="translate(113.807,175.214)"><g transform="scale(1,1)"><animateTransform repeatCount="indefinite" type="scale" attributeName="transform" dur="2.033s" begin="0s" calcMode="spline" values="1 1; 0.8 0.8; 1 1; 1 1" keyTimes="0; 0.491803; 0.983607; 1" keySplines="0.333 0 0.667 1; 0.333 0 0.667 1; 0 0 1 1" fill="freeze" /><g transform="translate(-113.807,-175.214)"><g id="i15" transform="matrix(1,0,0,1,113.807,175.214)"><ellipse ry="18.775" rx="18.775" cy="0" cx="0" fill="#ffe888" /></g></g></g></g></g><g id="i16"><g transform="translate(246.217,391.627)"><animateTransform repeatCount="indefinite" type="translate" attributeName="transform" dur="2.033s" begin="0s" calcMode="spline" values="246.217 391.627; 246.217 411.627; 246.217 391.627; 246.217 391.627" keyTimes="0; 0.491803; 0.983607; 1" keySplines="0.333 0 0.667 1; 0.333 0 0.667 1; 0 0 1 1" fill="freeze" /><g transform="scale(1,1) translate(-246.217,-391.627)"><g transform="matrix(1,0,0,1,0,0)" id="i17"><g id="i15" transform="matrix(1,0,0,1,249.683,323.582)"><path fill="#4e3b56" d="M0.004,-11.706C-11.313,-11.743,-22.55,-13.608,-33.271,-17.23C-33.271,-17.23,-33.296,-17.23,-33.296,-17.23C-33.928,1.159,-19.532,16.578,-1.143,17.21C17.246,17.842,32.665,3.446,33.297,-14.943C33.323,-15.699,33.323,-16.455,33.297,-17.211C22.567,-13.598,11.326,-11.739,0.004,-11.706Z" /></g><g id="i18"><path stroke-linecap="round" stroke-width="5" stroke="#ffffff" d="M217.25,316.154C217.25,316.154,227,323.404,250.75,323.154C274,322.904,281.75,316.154,281.75,316.154" /></g></g></g></g></g><g mask="url(#i5)" id="i16"><g transform="translate(246.217,391.627)"><animateTransform repeatCount="indefinite" type="translate" attributeName="transform" dur="2.033s" begin="0s" calcMode="spline" values="246.217 391.627; 246.217 411.627; 246.217 391.627; 246.217 391.627" keyTimes="0; 0.491803; 0.983607; 1" keySplines="0.333 0 0.667 1; 0.333 0 0.667 1; 0 0 1 1" fill="freeze" /><g transform="scale(1,1) translate(-246.217,-391.627)"><g visibility="visible" id="i19"><animate repeatCount="indefinite" begin="0s" calcMode="discrete" dur="2.033s" values="visible; hidden; hidden; hidden" keyTimes="0; 0.491919; 0.999836; 1" attributeName="visibility" /><g transform="translate(249.715,319.687)"><g transform="rotate(-90)"><animateTransform repeatCount="indefinite" type="rotate" attributeName="transform" dur="2.033s" begin="0s" calcMode="spline" values="-90; 90; -90; -90" keyTimes="0; 0.491803; 0.983607; 1" keySplines="0.333 0 0.667 1; 0.333 0 0.667 1; 0 0 1 1" fill="freeze" /><g transform="scale(1,1) translate(-249.715,-319.687)"><g id="i20" transform="matrix(1,0,0,1,250,232)"><rect height="600" width="600" y="-300" x="-300" stroke-width="0" stroke="#ffffff" fill="url(#i0)" /></g></g></g></g></g></g></g></g><g display="none" id="i16"><g transform="translate(246.217,391.627)"><animateTransform repeatCount="indefinite" type="translate" attributeName="transform" dur="2.033s" begin="0s" calcMode="spline" values="246.217 391.627; 246.217 411.627; 246.217 391.627; 246.217 391.627" keyTimes="0; 0.491803; 0.983607; 1" keySplines="0.333 0 0.667 1; 0.333 0 0.667 1; 0 0 1 1" fill="freeze" /><g transform="scale(1,1) translate(-246.217,-391.627)"><g transform="matrix(1,0,0,1,0,0)" visibility="visible" id="i6"><animate repeatCount="indefinite" begin="0s" calcMode="discrete" dur="2.033s" values="visible; hidden; hidden; hidden" keyTimes="0; 0.491919; 0.999836; 1" attributeName="visibility" /><g id="i7" transform="matrix(1,0,0,1,249.715,226.711)"><path fill="url(#i1)" d="M0.751,-92.145C-39.355,-92.559,-72.203,-60.382,-72.617,-20.276C-72.809,-1.695,-65.872,16.252,-53.232,29.873C-40.6,43.147,-33.472,60.717,-33.286,79.04C-33.286,79.04,-32.9,85.169,-32.9,85.169C-12.007,94.153,11.598,94.476,32.729,86.069C32.729,86.069,33.292,79.04,33.292,79.04C33.267,60.982,40.187,43.606,52.62,30.51C80.26,1.453,79.111,-44.508,50.054,-72.148C36.744,-84.809,19.13,-91.955,0.761,-92.145C0.761,-92.145,0.751,-92.145,0.751,-92.145Z" /></g></g></g></g></g><g mask="url(#i9)" id="i16"><g transform="translate(246.217,391.627)"><animateTransform repeatCount="indefinite" type="translate" attributeName="transform" dur="2.033s" begin="0s" calcMode="spline" values="246.217 391.627; 246.217 411.627; 246.217 391.627; 246.217 391.627" keyTimes="0; 0.491803; 0.983607; 1" keySplines="0.333 0 0.667 1; 0.333 0 0.667 1; 0 0 1 1" fill="freeze" /><g transform="scale(1,1) translate(-246.217,-391.627)"><g visibility="hidden" id="i21"><animate repeatCount="indefinite" begin="0s" calcMode="discrete" dur="2.033s" values="hidden; visible; visible; visible" keyTimes="0; 0.491919; 0.999836; 1" attributeName="visibility" /><g transform="translate(249.715,319.687)"><g transform="rotate(-90)"><animateTransform repeatCount="indefinite" type="rotate" attributeName="transform" dur="2.033s" begin="0s" calcMode="spline" values="-90; 90; -90; -90" keyTimes="0; 0.491803; 0.983607; 1" keySplines="0.333 0 0.667 1; 0.333 0 0.667 1; 0 0 1 1" fill="freeze" /><g transform="scale(1,1) translate(-249.715,-319.687)"><g id="i20" transform="matrix(1,0,0,1,250,232)"><rect height="600" width="600" y="-300" x="-300" stroke-width="0" stroke="#ffffff" fill="url(#i2)" /></g></g></g></g></g></g></g></g><g display="none" id="i16"><g transform="translate(246.217,391.627)"><animateTransform repeatCount="indefinite" type="translate" attributeName="transform" dur="2.033s" begin="0s" calcMode="spline" values="246.217 391.627; 246.217 411.627; 246.217 391.627; 246.217 391.627" keyTimes="0; 0.491803; 0.983607; 1" keySplines="0.333 0 0.667 1; 0.333 0 0.667 1; 0 0 1 1" fill="freeze" /><g transform="scale(1,1) translate(-246.217,-391.627)"><g transform="matrix(1,0,0,1,0,0)" visibility="hidden" id="i10"><animate repeatCount="indefinite" begin="0s" calcMode="discrete" dur="2.033s" values="hidden; visible; visible; visible" keyTimes="0; 0.491919; 0.999836; 1" attributeName="visibility" /><g id="i7" transform="matrix(1,0,0,1,249.715,226.711)"><path fill="url(#i3)" d="M0.751,-92.145C-39.355,-92.559,-72.203,-60.382,-72.617,-20.276C-72.809,-1.695,-65.872,16.252,-53.232,29.873C-40.6,43.147,-33.472,60.717,-33.286,79.04C-33.286,79.04,-32.9,85.169,-32.9,85.169C-12.007,94.153,11.598,94.476,32.729,86.069C32.729,86.069,33.292,79.04,33.292,79.04C33.267,60.982,40.187,43.606,52.62,30.51C80.26,1.453,79.111,-44.508,50.054,-72.148C36.744,-84.809,19.13,-91.955,0.761,-92.145C0.761,-92.145,0.751,-92.145,0.751,-92.145Z" /></g></g></g></g></g><g id="i16"><g transform="translate(246.217,391.627)"><animateTransform repeatCount="indefinite" type="translate" attributeName="transform" dur="2.033s" begin="0s" calcMode="spline" values="246.217 391.627; 246.217 411.627; 246.217 391.627; 246.217 391.627" keyTimes="0; 0.491803; 0.983607; 1" keySplines="0.333 0 0.667 1; 0.333 0 0.667 1; 0 0 1 1" fill="freeze" /><g transform="scale(1,1) translate(-246.217,-391.627)"><g transform="matrix(1,0,0,1,0,0)" id="i17"><g transform="matrix(1,0,0,1,249.7,294.859)" id="i22"><g id="i15"><path fill="#ffffff" d="M0,20.228C-1.777,20.228,-3.217,18.787,-3.217,17.01C-3.217,17.01,-3.217,-17.01,-3.217,-17.01C-3.217,-18.787,-1.777,-20.228,0,-20.228C1.777,-20.228,3.217,-18.787,3.217,-17.01C3.217,-17.01,3.217,17.01,3.217,17.01C3.217,18.787,1.777,20.228,0,20.228Z" /></g></g></g></g></g></g><g id="i16"><g transform="translate(246.217,391.627)"><animateTransform repeatCount="indefinite" type="translate" attributeName="transform" dur="2.033s" begin="0s" calcMode="spline" values="246.217 391.627; 246.217 411.627; 246.217 391.627; 246.217 391.627" keyTimes="0; 0.491803; 0.983607; 1" keySplines="0.333 0 0.667 1; 0.333 0 0.667 1; 0 0 1 1" fill="freeze" /><g transform="scale(1,1) translate(-246.217,-391.627)"><g transform="matrix(1,0,0,1,0,0)" id="i17"><g transform="matrix(1,0,0,1,249.694,257.787)" id="i23"><g id="i15"><path fill="#ffffff" d="M0,-4.099C2.264,-4.099,4.099,-2.264,4.099,0C4.099,2.264,2.264,4.099,0,4.099C-2.264,4.099,-4.099,2.264,-4.099,0C-4.099,-2.264,-2.264,-4.099,0,-4.099Z" /></g></g></g></g></g></g><g id="i16"><g transform="translate(246.217,391.627)"><animateTransform repeatCount="indefinite" type="translate" attributeName="transform" dur="2.033s" begin="0s" calcMode="spline" values="246.217 391.627; 246.217 411.627; 246.217 391.627; 246.217 391.627" keyTimes="0; 0.491803; 0.983607; 1" keySplines="0.333 0 0.667 1; 0.333 0 0.667 1; 0 0 1 1" fill="freeze" /><g transform="scale(1,1) translate(-246.217,-391.627)"><g transform="matrix(1,0,0,1,0,0)" id="i17"><g transform="matrix(1,0,0,1,249.791,230.865)" id="i24"><g id="i15"><path d="M20.927,-9.721C14.718,-8.866,11.778,-5.979,9.289,-2.714C5.001,2.911,5.397,9.858,0,9.858C-6.087,9.858,-5.287,0.693,-11.005,-4.722C-16.059,-9.508,-20.927,-9.858,-20.927,-9.858" stroke-linejoin="round" stroke-linecap="round" stroke-width="6" stroke="#ffffff"><animate repeatCount="indefinite" attributeName="d" dur="2.033s" begin="0s" calcMode="spline" values="M20.927,-9.721C14.718,-8.866,11.778,-5.979,9.289,-2.714C5.001,2.911,5.397,9.858,0,9.858C-6.087,9.858,-5.287,0.693,-11.005,-4.722C-16.059,-9.508,-20.927,-9.858,-20.927,-9.858; M0,-9.721C0,-6.241,0,-6.116,0,-2.714C0,4.359,0,7.76,0,9.858C0,8.26,0,3.154,0,-4.722C0,-6.552,0,-9.858,0,-9.858; M20.927,-9.721C14.718,-8.866,11.778,-5.979,9.289,-2.714C5.001,2.911,5.397,9.858,0,9.858C-6.087,9.858,-5.287,0.693,-11.005,-4.722C-16.059,-9.508,-20.927,-9.858,-20.927,-9.858; M0,-9.721C0,-6.241,0,-6.116,0,-2.714C0,4.359,0,7.76,0,9.858C0,8.26,0,3.154,0,-4.722C0,-6.552,0,-9.858,0,-9.858; M20.927,-9.721C14.718,-8.866,11.778,-5.979,9.289,-2.714C5.001,2.911,5.397,9.858,0,9.858C-6.087,9.858,-5.287,0.693,-11.005,-4.722C-16.059,-9.508,-20.927,-9.858,-20.927,-9.858; M20.927,-9.721C14.718,-8.866,11.778,-5.979,9.289,-2.714C5.001,2.911,5.397,9.858,0,9.858C-6.087,9.858,-5.287,0.693,-11.005,-4.722C-16.059,-9.508,-20.927,-9.858,-20.927,-9.858" keyTimes="0; 0.245902; 0.491803; 0.737705; 0.983607; 1" keySplines="0.333 0 0.833 0.833; 0.167 0.167 0.667 1; 0.333 0 0.833 0.833; 0.167 0.167 0.667 1; 0 0 1 1" fill="freeze" /></path></g></g></g></g></g></g><g id="i16"><g transform="translate(246.217,391.627)"><animateTransform repeatCount="indefinite" type="translate" attributeName="transform" dur="2.033s" begin="0s" calcMode="spline" values="246.217 391.627; 246.217 411.627; 246.217 391.627; 246.217 391.627" keyTimes="0; 0.491803; 0.983607; 1" keySplines="0.333 0 0.667 1; 0.333 0 0.667 1; 0 0 1 1" fill="freeze" /><g transform="scale(1,1) translate(-246.217,-391.627)"><g id="i7" transform="matrix(1,0,0,1,246.217,391.627)"><path fill="#ff977b" d="M75.941,-10.2C66.997,-16.21,49.22,-8.019,38.375,-6.739C42.739,-7.371,45.765,-11.421,45.133,-15.785C44.73,-18.565,42.898,-20.929,40.306,-22.01C30.217,-25.875,19.808,-28.846,9.199,-30.889C-7.508,-34.248,-24.86,-31.868,-40.045,-24.134C-48.409,-20.174,-72.341,-3.866,-78.264,5.377C-79.097,6.558,-79.458,8.007,-79.277,9.44C-78.679,14.832,-62.477,30.39,-57.507,32.002C-55.665,32.69,-53.601,32.412,-52.006,31.262C-49.011,29.332,-42.426,22.871,-35.792,20.539C-23.506,16.218,-3.128,19.954,6.79,19.716C21.383,19.365,70.122,6.873,77.65,0.075C80.102,-2.716,79.826,-6.966,77.035,-9.418C76.697,-9.715,76.331,-9.977,75.941,-10.2Z" /></g><g id="i15" transform="matrix(1,0,0,1,267.497,384.312)"><path fill="#ed4850" d="M-17.08,4.402C-18.857,4.404,-20.299,2.966,-20.301,1.189C-20.302,0.022,-19.672,-1.055,-18.653,-1.624C-11.421,-5.655,-2.844,-4.419,4.716,-3.332C8.622,-2.545,12.617,-2.301,16.59,-2.605C18.346,-2.877,19.991,-1.673,20.263,0.083C20.535,1.839,19.331,3.483,17.575,3.755C17.575,3.755,17.575,3.755,17.575,3.755C12.972,4.18,8.332,3.937,3.799,3.034C-3.073,2.046,-10.185,1.023,-15.503,3.999C-15.985,4.267,-16.529,4.406,-17.08,4.402Z" /></g></g></g></g></svg>